<svg width="636" height="423" viewBox="0 0 636 423" fill="none" xmlns="http://www.w3.org/2000/svg">
<g clip-path="url(#clip0_48_111)">
<path d="M245.893 38.2153H168.731C166.083 38.2153 163.93 36.0625 163.93 33.4166C163.93 30.7706 166.083 28.6178 168.731 28.6178H245.893C248.54 28.6178 250.694 30.7706 250.694 33.4166C250.694 36.0625 248.54 38.2153 245.893 38.2153Z" fill="#E6E7E8"/>
<path d="M306.11 54.4574H168.731C166.083 54.4574 163.93 52.3046 163.93 49.6586C163.93 47.0127 166.083 44.8599 168.731 44.8599H306.11C308.757 44.8599 310.911 47.0127 310.911 49.6586C310.911 52.3046 308.757 54.4574 306.11 54.4574Z" fill="#E6E7E8"/>
<path d="M306.11 70.5532H168.731C166.083 70.5532 163.93 68.4004 163.93 65.7545C163.93 63.1085 166.083 60.9557 168.731 60.9557H306.11C308.757 60.9557 310.911 63.1085 310.911 65.7545C310.911 68.4004 308.757 70.5532 306.11 70.5532Z" fill="#E6E7E8"/>
<path d="M320.662 154.082V151.782C294.109 151.782 270.922 130.102 264.757 99.9011L274.761 102.474C269.922 97.8913 265.034 90.2197 262.001 83.9498C260.21 90.6807 256.865 99.1393 252.982 104.555L262.448 100.073C268.743 131.493 292.927 154.082 320.662 154.082Z" fill="#3F3D56"/>
<path d="M310.618 66.0849C310.618 68.6207 308.554 70.6837 306.017 70.6837H246.206C243.669 70.6837 241.605 68.6207 241.605 66.0849C241.605 63.5491 243.669 61.4861 246.206 61.4861H306.017C308.554 61.4861 310.618 63.5491 310.618 66.0849Z" fill="#176B87"/>
<path d="M41.2972 322.259C40.3867 319.09 38.8275 316.387 36.9712 314.459L30.2267 283.727L15.5256 287.327L23.9501 318.114C23.3961 320.718 23.5069 323.828 24.4174 326.997C26.4975 334.237 31.9623 339.045 36.6236 337.737C41.2848 336.429 43.3772 329.499 41.2972 322.259Z" fill="#FFB6B6"/>
<path d="M39.2633 120.669C39.2633 120.669 23.3847 120.121 14.183 130.468C3.64061 143.341 -3.56556 193.78 1.84414 197.176L16.5009 301.207L37.4013 298.337L32.0373 173.514L39.2633 120.669Z" fill="#176B87"/>
<path d="M146.458 296.026L142.653 422.996H88.0182L85.8098 374.053L76.102 422.996H17.5447L24.8485 338.861L32.3939 321.167L37.5009 309.175L146.458 296.026Z" fill="#2F2E41"/>
<path d="M103.063 99.9292L65.1059 97.6298L52.4536 113.726C41.5262 116.064 31.6564 119.084 24.8484 124.073C26.4772 172.275 22.8992 234.952 37.5008 247.091L24.5349 338.565C24.5349 338.565 29.7637 334.087 38.4982 335.668C41.5157 336.214 45.1583 343.009 48.8661 343.421C77.3566 346.584 123.558 343.331 146.458 296.026L137.569 227.546L139.87 127.522C132.678 121.84 123.737 118.147 113.415 116.025L103.063 99.9292Z" fill="#176B87"/>
<path d="M176.136 71.9468C176.548 75.9328 176.025 79.6813 174.821 82.6867L181.144 120.411L163.097 122.893L158.626 84.3584C156.833 81.6625 155.555 78.0999 155.143 74.1139C154.202 65.008 158.139 57.1411 163.936 56.5427C169.733 55.9442 175.196 62.8409 176.136 71.9468Z" fill="#FFB6B6"/>
<path d="M116.138 130.404C114.248 133.191 114.775 136.323 114.323 140.087C112.408 156.063 143.038 203.274 164.232 208.71C167.013 209.423 168.597 212.422 171.404 213.025C179.719 214.812 187.462 208.214 187.013 199.724L181.256 90.8381L157.07 99.0839L158.618 155.616C158.464 143.904 147.706 131.979 139.556 127.019C139.556 127.019 123.049 120.211 116.138 130.404Z" fill="#176B87"/>
<path d="M88.0234 94.6545C106.489 94.6545 121.458 79.6922 121.458 61.2352C121.458 42.7783 106.489 27.8159 88.0234 27.8159C69.5583 27.8159 54.5894 42.7783 54.5894 61.2352C54.5894 79.6922 69.5583 94.6545 88.0234 94.6545Z" fill="#FFB6B6"/>
<path d="M119.166 36.6954C118.878 36.7645 123.567 32.1964 123.767 32.0966C128.368 29.7972 123.64 52.2739 120.316 51.6416C112.138 50.0894 108.607 47.0082 105.432 54.6998C104.547 56.8382 103.995 59.2526 102.269 60.7817C99.8999 62.8627 95.9662 62.6902 94.0339 65.1736C92.481 67.1741 92.9296 70.1173 94.0799 72.3707C95.2301 74.6357 96.9784 76.5557 98.0251 78.8666C99.1983 81.4649 94.1948 89.7313 92.2855 94.3761V94.3876L92.2742 94.4148C91.7668 95.6331 90.5612 92.1235 89.2883 91.7732C87.7652 91.354 85.5213 94.9489 83.0953 94.2956C83.0838 94.2956 83.0723 94.2841 83.0608 94.2841C80.7488 93.6403 78.1724 92.9505 75.6189 92.2606H75.6074C68.4186 90.3062 66.6012 93.1114 66.2562 93.031L61.7933 88.3632C60.2618 87.2485 60.4349 83.6501 59.3549 82.6836C58.4717 81.8932 56.2698 83.7196 55.6209 82.9599C52.4389 79.2348 51.7068 75.5084 49.8311 68.1513C48.1173 61.4256 44.5632 41.2942 51.867 40.3859C58.7568 39.5237 53.7188 29.9352 60.6546 30.2916C60.2406 28.544 61.0112 26.67 62.265 25.3823C63.5071 24.0831 65.1634 23.2783 66.8313 22.5885C75.0553 19.2314 73.6866 16.3457 82.3592 18.3001C83.2218 17.093 94.2838 13.9458 95.8482 14.3483C95.9632 14.3712 93.4357 19.2774 99.6124 18.3001C99.3823 19.7143 102.749 16.6477 103.063 21.7493C109.651 17.7974 113.196 27.2563 113.415 28.6475C113.702 30.3836 111.08 29.4983 112.828 29.7627C113.864 29.9236 115.635 32.0276 115.462 33.0738C116.21 32.0621 116.958 31.0618 117.717 30.0501C117.855 30.0616 117.981 30.0846 118.119 30.1076C121.616 30.7744 117.607 42.2001 117.751 38.6384C118.016 32.0966 122.651 35.9251 119.166 36.6954Z" fill="#2F2E41"/>
<path d="M545.627 29.8438C544.392 39.9925 543.042 50.1274 541.578 60.2459C540.983 64.3555 540.355 68.5174 538.701 72.3264C537.572 74.9264 535.99 77.3007 534.417 79.6591C532.559 82.4461 530.67 85.2685 528.146 87.4716C525.621 89.6746 522.343 91.2215 519.002 90.9626C527.866 84.9984 533.823 74.9109 534.765 64.2719C535.207 59.271 534.6 54.244 534.484 49.2249C534.367 44.2058 534.787 39.012 537.104 34.5575C539.421 30.103 543.997 26.5373 549.018 26.6639L545.627 29.8438Z" fill="#2F2E41"/>
<path d="M455.792 246.302C448.58 252.149 439.715 253.17 435.993 248.582C432.27 243.995 435.099 235.536 442.312 229.689C445.469 227.129 448.943 225.495 452.163 224.85L483.035 200.458L494.179 215.182L462.562 237.666C461.267 240.683 458.95 243.743 455.792 246.302Z" fill="#A0616A"/>
<path d="M461.624 213.187L507.624 169.558L512.225 166.109C512.225 166.109 538.631 140.394 545.469 139.806C548.365 139.557 551.261 140.278 553.701 141.863C557.642 144.417 559.684 148.623 559.684 152.861C559.684 156.403 558.256 159.961 555.335 162.582L513.222 200.372L495.306 216.447L473.025 236.445L470.76 231.834L463.101 216.207L461.624 213.187Z" fill="#176B87"/>
<path d="M559.985 183.661L513.926 197.762C521.637 199.933 524.866 246.9 517.69 248.358C517.69 248.358 594.023 253.785 589.858 248.358C584.781 241.743 591.59 197.781 594.837 197.762L559.985 183.661Z" fill="#A0616A"/>
<path d="M621.272 423L617.247 374.436C617.247 357.064 616.119 341.371 614.313 327.379C607.079 271.216 588.94 242.427 588.94 242.427H521.077C520.985 242.531 520.893 242.611 520.801 242.715L520.79 242.726C504.779 259.546 496.451 301.844 492.747 327.379C490.988 339.531 490.274 347.89 490.274 347.89L483.638 406.847L488.434 423H527.921L527.3 419.539L552.708 327.379L553.019 326.252L553.295 327.379L576.851 423L621.272 423Z" fill="#2F2E41"/>
<path d="M522.468 155.646L536.808 126.711L548.891 105.69L558.662 95.7366H585.403L587.892 105.69L602.829 113.985L608.113 155.457L589.29 245.439C566.885 227.191 520.705 222.137 520.705 222.137L513.222 200.372L508.277 174.153L507.679 171.018L522.468 155.646Z" fill="#176B87"/>
<path d="M520.747 207.988C511.465 207.725 504.075 202.725 504.243 196.82C504.411 190.915 512.072 186.342 521.354 186.606C525.418 186.721 529.118 187.744 531.981 189.353L571.3 190.962L570.152 209.389L531.513 205.847C528.563 207.291 524.811 208.103 520.747 207.988Z" fill="#A0616A"/>
<path d="M571.031 145.09L608.121 181.897L543.516 188.51L528.502 209.619L618.551 212.603C626.675 215.496 635.33 209.883 635.998 201.289C636.224 198.386 617.724 124.75 606.525 117.914C593.399 109.902 571.031 145.09 571.031 145.09Z" fill="#176B87"/>
<path d="M596.795 59.6209C597.065 42.9026 583.725 29.1312 566.999 28.8616C550.273 28.5921 536.496 41.9264 536.226 58.6447C535.956 75.363 549.297 89.1344 566.022 89.404C582.748 89.6736 596.526 76.3392 596.795 59.6209Z" fill="#A0616A"/>
<path d="M632.998 153.462C632.239 156.337 626.327 157.82 624.946 161.51C620.552 164.017 622.933 143.541 621.162 142.195C619.793 141.172 619.425 143.644 619.115 141.517C617.941 133.538 610.27 135.32 604.587 134.032C603.943 132.779 603.449 131.561 603.127 130.376C602.552 128.238 599.929 127.491 598.376 129.066C597.675 128.445 597.169 126.249 596.674 124.053C596.317 122.455 595.961 120.857 595.547 119.845L591.59 110.923L592.867 117.569C590.279 116.637 587.668 117.603 586.161 114.407C584.229 110.303 583.458 105.497 584.861 101.185C586.138 97.2764 588.289 89.4469 590.716 82.9626C587.967 84.9515 584.666 86.4002 580.836 87.1245C582.193 84.5492 583.573 81.9278 584.148 79.0651C584.712 76.2023 584.367 73.0176 582.549 70.7412C581.054 68.8672 578.846 69.3385 576.982 67.8324C575.533 66.6598 574.279 63.6591 573.405 62.0149C577.132 74.3973 579.95 87.5499 575.211 99.3689C571.933 107.555 565.032 114.212 556.75 117.235C561.155 114.085 565.457 110.728 568.758 106.451C572.289 101.864 574.59 96.0692 573.888 90.3206C572.784 81.2955 556.037 52.7483 553.978 47.1377C555.105 52.6218 554.668 56.8988 551.701 59.2557C550.93 51.2997 542.257 52.024 537.53 48.8393C537.53 48.8393 533.872 28.1791 542.453 28.0527C546.594 27.9952 550.93 18.2687 554.691 16.5326C560.695 13.7618 564.376 15.6474 571.036 15.8543C577.684 16.0497 584.068 18.9125 588.128 24.1666C590.256 26.9144 591.038 24.73 594.236 26.443C597.272 28.0642 599.319 26.5581 602.759 26.6615C609.648 26.8455 616.331 30.5245 620.196 36.2155C624.061 41.9181 626.442 41.3892 624.912 50.2075C624.889 50.3109 624.889 50.5179 624.912 50.8283C625.751 64.7168 623.601 78.6397 618.091 91.4244C616.389 95.3563 624.715 99.4146 624.704 104.324C624.692 110.026 615.503 115.223 616.354 117.661C618.793 129.399 632.492 126.789 629.26 146.438C628.995 148.036 633.504 151.542 632.998 153.462Z" fill="#2F2E41"/>
<path d="M549.087 117.512C549.34 117.432 549.593 117.34 549.846 117.236C549.524 117.466 549.214 117.685 548.892 117.915L549.087 117.512Z" fill="#2F2E41"/>
<path d="M591.751 20.649C588.456 21.1384 585.109 15.6744 586.979 8.09705C591.056 14.3279 593.14 21.3424 593.468 29.0472L591.271 29.7276L591.751 20.649Z" fill="#176B87"/>
<path d="M608.585 13.5763C606.336 21.5399 594.918 26.8695 592.901 24.0981L592.67 28.8471L591.259 27.0319C595.354 20.9449 600.936 16.2754 608.585 13.5763Z" fill="#176B87"/>
<path d="M357.855 228.324C357.855 225.678 360.009 223.526 362.656 223.526H439.818C442.466 223.526 444.619 225.678 444.619 228.324C444.619 230.97 442.466 233.123 439.818 233.123H362.656C360.009 233.123 357.855 230.97 357.855 228.324Z" fill="#E6E7E8"/>
<path d="M357.855 260.516C357.855 257.87 360.009 255.717 362.656 255.717H439.818C442.466 255.717 444.619 257.87 444.619 260.516C444.619 263.162 442.466 265.315 439.818 265.315H362.656C360.009 265.315 357.855 263.162 357.855 260.516Z" fill="#E6E7E8"/>
<path d="M302.439 249.365C299.791 249.365 297.638 247.212 297.638 244.566C297.638 241.92 299.791 239.768 302.439 239.768H439.818C442.465 239.768 444.619 241.92 444.619 244.566C444.619 247.212 442.465 249.365 439.818 249.365H302.439Z" fill="#E6E7E8"/>
<path d="M292.225 203.437L282.759 198.955C286.642 204.371 289.987 212.829 291.779 219.56C294.811 213.29 299.7 205.619 304.539 201.036L294.534 203.609C300.699 173.409 323.886 151.728 350.439 151.728V149.428C322.704 149.428 298.52 172.017 292.225 203.437Z" fill="#3F3D56"/>
<path d="M335.795 249.453H275.984C273.447 249.453 271.383 247.389 271.383 244.854C271.383 242.318 273.447 240.255 275.984 240.255H335.795C338.332 240.255 340.396 242.318 340.396 244.854C340.396 247.389 338.332 249.453 335.795 249.453Z" fill="#176B87"/>
<path d="M353.264 155.4C354.857 145.587 348.189 136.34 338.372 134.748C328.554 133.155 319.303 139.82 317.71 149.633C316.117 159.447 322.784 168.693 332.602 170.286C342.42 171.878 351.67 165.214 353.264 155.4Z" fill="#3F3D56"/>
<path d="M237.718 22.2063C243.853 22.2063 248.826 17.2352 248.826 11.1031C248.826 4.97104 243.853 0 237.718 0C231.584 0 226.61 4.97104 226.61 11.1031C226.61 17.2352 231.584 22.2063 237.718 22.2063Z" fill="#E6E7E8"/>
<path d="M367.693 214.207C373.827 214.207 378.801 209.236 378.801 203.104C378.801 196.972 373.827 192.001 367.693 192.001C361.558 192.001 356.584 196.972 356.584 203.104C356.584 209.236 361.558 214.207 367.693 214.207Z" fill="#E6E7E8"/>
</g>
<defs>
<clipPath id="clip0_48_111">
<rect width="636" height="423" fill="white"/>
</clipPath>
</defs>
</svg>
