<svg width="847" height="665" viewBox="0 0 847 665" fill="none" xmlns="http://www.w3.org/2000/svg">
<g clip-path="url(#clip0_4_216)">
<path d="M770.991 607.075C754.755 624.459 736.15 639.469 715.725 651.663C715.257 651.951 714.781 652.221 714.303 652.501L681.237 623.235C681.585 622.913 681.969 622.551 682.383 622.153C707.021 598.759 829.329 435.191 837.479 395.359C836.917 398.678 844.834 528.811 770.991 607.075Z" fill="#F0F0F0"/>
<path d="M722.105 657.31C721.48 657.459 720.844 657.598 720.206 657.726L695.4 635.77C695.884 635.601 696.451 635.4 697.099 635.177C707.742 631.408 739.442 620.031 770.989 607.073C804.886 593.143 838.621 577.404 845.876 567.323C844.32 569.665 796.379 640.701 722.105 657.31Z" fill="#F0F0F0"/>
<path d="M770.533 174.162H767V77.3863C767 70.0309 765.551 62.7474 762.737 55.9519C759.922 49.1563 755.796 42.9817 750.595 37.7806C745.394 32.5795 739.219 28.4538 732.424 25.6389C725.628 22.8241 718.345 21.3754 710.989 21.3754H505.958C498.602 21.3753 491.319 22.8241 484.523 25.6389C477.728 28.4537 471.553 32.5794 466.352 37.7805C461.151 42.9816 457.025 49.1562 454.21 55.9517C451.396 62.7473 449.947 70.0307 449.947 77.3862V608.303C449.947 615.659 451.395 622.942 454.21 629.738C457.025 636.533 461.151 642.708 466.352 647.909C471.553 653.11 477.728 657.236 484.523 660.051C491.319 662.865 498.602 664.314 505.958 664.314H710.989C718.345 664.314 725.628 662.866 732.424 660.051C739.219 657.236 745.394 653.11 750.595 647.909C755.796 642.708 759.922 636.534 762.737 629.738C765.551 622.942 767 615.659 767 608.304V243.048H770.533V174.162Z" fill="#3F3D56"/>
<path d="M755.077 77.771V607.915C755.077 613.408 753.995 618.848 751.893 623.923C749.79 628.997 746.708 633.608 742.823 637.492C738.939 641.375 734.327 644.455 729.251 646.556C724.175 648.657 718.736 649.737 713.243 649.735H507.224C501.732 649.735 496.294 648.654 491.22 646.553C486.146 644.451 481.535 641.371 477.652 637.487C473.769 633.604 470.688 628.994 468.587 623.92C466.485 618.846 465.404 613.407 465.404 607.915V77.771C465.404 72.2791 466.485 66.8408 468.587 61.7668C470.688 56.6928 473.769 52.0825 477.652 48.1991C481.535 44.3157 486.146 41.2353 491.22 39.1338C496.294 37.0323 501.732 35.9509 507.224 35.9513H532.225C530.998 38.9689 530.531 42.2418 530.866 45.4822C531.2 48.7226 532.326 51.8312 534.143 54.5345C535.961 57.2379 538.415 59.4532 541.29 60.9857C544.164 62.5181 547.371 63.3207 550.629 63.3229H668.086C671.346 63.3259 674.556 62.5267 677.433 60.9958C680.311 59.4648 682.768 57.2491 684.586 54.5442C686.405 51.8393 687.53 48.7283 687.862 45.4857C688.194 42.2432 687.723 38.9687 686.491 35.9513H713.243C718.736 35.9493 724.175 37.0295 729.251 39.1303C734.327 41.231 738.939 44.3111 742.823 48.1947C746.708 52.0782 749.79 56.689 751.893 61.7638C753.995 66.8386 755.077 72.2779 755.077 77.771Z" fill="white"/>
<path d="M690.992 353.262H509.908C506.736 353.259 503.696 351.997 501.453 349.755C499.21 347.512 497.949 344.471 497.945 341.299V335.344C497.949 332.173 499.21 329.132 501.453 326.889C503.696 324.646 506.736 323.385 509.908 323.381H690.992C694.164 323.385 697.205 324.646 699.448 326.889C701.691 329.132 702.952 332.173 702.956 335.344V341.299C702.952 344.471 701.691 347.512 699.448 349.755C697.205 351.997 694.164 353.259 690.992 353.262Z" fill="#F0F0F0"/>
<path d="M690.992 404.593H509.908C506.736 404.59 503.696 403.328 501.453 401.086C499.21 398.843 497.949 395.802 497.945 392.63V386.675C497.949 383.504 499.21 380.463 501.453 378.22C503.696 375.977 506.736 374.716 509.908 374.712H690.992C694.164 374.716 697.205 375.977 699.448 378.22C701.691 380.463 702.952 383.504 702.956 386.675V392.63C702.952 395.802 701.691 398.843 699.448 401.086C697.205 403.328 694.164 404.59 690.992 404.593Z" fill="#F0F0F0"/>
<path d="M700.051 341.782H518.967C515.636 341.778 512.443 340.454 510.088 338.099C507.734 335.744 506.409 332.551 506.405 329.221V323.266C506.409 319.936 507.734 316.743 510.088 314.388C512.443 312.033 515.636 310.708 518.967 310.705H700.051C703.381 310.708 706.574 312.033 708.929 314.388C711.284 316.743 712.608 319.936 712.612 323.266V329.221C712.608 332.551 711.284 335.744 708.929 338.099C706.574 340.454 703.381 341.778 700.051 341.782ZM518.967 313.097C516.271 313.1 513.686 314.173 511.779 316.079C509.873 317.985 508.801 320.57 508.798 323.266V329.221C508.801 331.917 509.873 334.502 511.779 336.408C513.686 338.314 516.271 339.387 518.967 339.39H700.051C702.747 339.387 705.331 338.314 707.238 336.408C709.144 334.502 710.217 331.917 710.22 329.221V323.266C710.217 320.57 709.144 317.985 707.238 316.079C705.331 314.173 702.747 313.1 700.051 313.097H518.967Z" fill="#3F3D56"/>
<path d="M700.051 393.113H518.967C515.636 393.11 512.443 391.785 510.088 389.43C507.734 387.075 506.409 383.882 506.405 380.552V374.597C506.409 371.267 507.734 368.074 510.088 365.719C512.443 363.364 515.636 362.039 518.967 362.036H700.051C703.381 362.039 706.574 363.364 708.929 365.719C711.284 368.074 712.608 371.267 712.612 374.597V380.552C712.608 383.882 711.284 387.075 708.929 389.43C706.574 391.785 703.381 393.11 700.051 393.113ZM518.967 364.428C516.271 364.431 513.686 365.504 511.779 367.41C509.873 369.316 508.801 371.901 508.798 374.597V380.552C508.801 383.248 509.873 385.833 511.779 387.739C513.686 389.645 516.271 390.718 518.967 390.721H700.051C702.747 390.718 705.331 389.645 707.238 387.739C709.144 385.833 710.217 383.248 710.22 380.552V374.597C710.217 371.901 709.144 369.316 707.238 367.41C705.331 365.504 702.747 364.431 700.051 364.428H518.967Z" fill="#3F3D56"/>
<path d="M755.078 77.771V193.085C736.755 197.905 717.57 198.458 699 194.701C680.43 190.944 662.969 182.978 647.961 171.414C632.953 159.85 620.797 144.998 612.43 127.999C604.062 111 599.706 92.309 599.696 73.3626C599.696 69.9808 599.831 66.6342 600.103 63.3229H668.086C671.346 63.3259 674.556 62.5267 677.434 60.9958C680.311 59.4648 682.768 57.2491 684.586 54.5442C686.405 51.8393 687.53 48.7283 687.862 45.4857C688.194 42.2432 687.723 38.9687 686.491 35.9513H713.243C718.736 35.9493 724.176 37.0295 729.251 39.1303C734.327 41.231 738.939 44.3111 742.824 48.1947C746.708 52.0782 749.79 56.689 751.893 61.7638C753.995 66.8386 755.078 72.2779 755.078 77.771Z" fill="#F0F0F0"/>
<path d="M569.501 642.534C569.501 644.964 569.41 647.365 569.214 649.735H507.224C501.732 649.735 496.294 648.654 491.22 646.553C486.146 644.451 481.535 641.371 477.652 637.487C473.769 633.604 470.688 628.994 468.587 623.92C466.485 618.846 465.404 613.407 465.404 607.915V551.21C478.398 549.52 491.603 550.619 504.139 554.433C516.674 558.248 528.253 564.691 538.103 573.332C547.953 581.974 555.848 592.615 561.262 604.548C566.676 616.481 569.485 629.43 569.501 642.534Z" fill="#176B87"/>
<path d="M69.5321 543.036C71.274 543.802 73.2486 543.846 75.0228 543.158C76.797 542.47 78.226 541.107 78.9963 539.367L134.84 412.803C136.118 409.906 136.509 406.696 135.962 403.578C135.416 400.459 133.957 397.573 131.77 395.284C129.583 392.995 126.767 391.406 123.676 390.717C120.586 390.029 117.362 390.272 114.41 391.417C111 392.719 108.146 395.163 106.334 398.332C106.046 398.833 105.785 399.35 105.551 399.879L49.7077 526.443C49.3271 527.306 49.1201 528.235 49.0986 529.177C49.077 530.119 49.2413 531.057 49.582 531.936C49.9228 532.815 50.4334 533.618 51.0846 534.299C51.7358 534.981 52.5148 535.528 53.3773 535.908L69.5321 543.036Z" fill="#176B87"/>
<path d="M132.547 464.763L77.3109 452.488L90.9825 416.32C93.3116 407.48 98.7318 399.768 106.26 394.582C113.788 389.396 122.926 387.08 132.015 388.054L132.548 388.113L132.547 464.763Z" fill="#2F2E41"/>
<path d="M244.117 544.846C242.492 544.843 240.903 544.37 239.542 543.483C238.18 542.596 237.105 541.334 236.446 539.849L180.602 413.285C178.826 409.258 178.661 404.704 180.141 400.559C181.621 396.414 184.633 392.993 188.558 391.002C192.482 389.01 197.021 388.598 201.24 389.851C205.459 391.103 209.038 393.925 211.24 397.736C211.549 398.275 211.83 398.828 212.08 399.396L267.924 525.961C268.82 527.993 268.873 530.298 268.07 532.368C267.267 534.439 265.675 536.106 263.643 537.003L246.94 544.372L246.932 544.353C246.029 544.679 245.076 544.846 244.117 544.846Z" fill="#176B87"/>
<path d="M166.87 501.385C164.967 501.387 163.143 502.144 161.797 503.489C160.451 504.835 159.695 506.659 159.692 508.562V655.728C159.695 657.631 160.451 659.455 161.797 660.801C163.143 662.147 164.967 662.904 166.87 662.906H184.528C186.431 662.904 188.255 662.147 189.601 660.801C190.946 659.455 191.703 657.631 191.706 655.728V508.562C191.703 506.659 190.947 504.835 189.601 503.489C188.255 502.144 186.431 501.387 184.528 501.385H166.87Z" fill="#176B87"/>
<path d="M131.947 501.385C130.044 501.387 128.219 502.144 126.873 503.489C125.528 504.835 124.771 506.659 124.769 508.562V655.728C124.771 657.631 125.528 659.455 126.873 660.801C128.219 662.147 130.044 662.904 131.947 662.906H149.604C151.507 662.904 153.332 662.147 154.677 660.801C156.023 659.455 156.78 657.631 156.782 655.728V508.562C156.78 506.659 156.023 504.835 154.677 503.489C153.332 502.144 151.507 501.387 149.604 501.385H131.947Z" fill="#176B87"/>
<path d="M157.71 347.203C191.406 347.203 218.722 319.887 218.722 286.19C218.722 252.494 191.406 225.178 157.71 225.178C124.013 225.178 96.6969 252.494 96.6969 286.19C96.6969 319.887 124.013 347.203 157.71 347.203Z" fill="#176B87"/>
<path d="M178.013 311.803C181.968 311.693 186.891 311.556 190.683 308.786C191.812 307.927 192.739 306.832 193.401 305.577C194.062 304.322 194.441 302.937 194.511 301.521C194.579 300.514 194.414 299.505 194.028 298.572C193.642 297.64 193.046 296.809 192.285 296.145C190.305 294.472 187.413 294.079 184.296 294.995L187.525 271.397L185.155 271.072L181.358 298.815L183.338 297.906C185.633 296.854 188.783 296.318 190.741 297.973C191.222 298.405 191.596 298.943 191.835 299.543C192.074 300.144 192.172 300.792 192.12 301.436C192.062 302.491 191.777 303.521 191.286 304.455C190.794 305.39 190.107 306.208 189.271 306.853C186.32 309.009 182.397 309.287 177.947 309.411L178.013 311.803Z" fill="#2F2E41"/>
<path d="M212.135 273.432H199.248V275.825H212.135V273.432Z" fill="#2F2E41"/>
<path d="M171.459 273.432H158.573V275.825H171.459V273.432Z" fill="#2F2E41"/>
<path d="M218.164 545.589L196.204 385.281C195.969 383.562 195.119 381.987 193.811 380.846C192.504 379.706 190.828 379.077 189.093 379.077H172.517C172.586 378.682 172.622 378.282 172.624 377.881V371.9C172.624 369.996 171.868 368.17 170.522 366.824C169.176 365.478 167.35 364.722 165.446 364.722H151.09C149.187 364.722 147.361 365.478 146.015 366.824C144.669 368.17 143.913 369.996 143.913 371.9V377.881C143.915 378.282 143.951 378.682 144.02 379.077H127.444C125.709 379.078 124.033 379.706 122.726 380.846C121.418 381.987 120.568 383.562 120.332 385.281L98.3726 545.589C98.2335 546.605 98.3135 547.638 98.6071 548.62C98.9007 549.602 99.4012 550.51 100.075 551.282C100.749 552.054 101.58 552.673 102.513 553.098C103.446 553.522 104.459 553.741 105.484 553.741H211.053C212.078 553.741 213.091 553.522 214.024 553.098C214.957 552.673 215.788 552.054 216.462 551.282C217.136 550.51 217.636 549.602 217.93 548.62C218.223 547.638 218.303 546.605 218.164 545.589Z" fill="#2F2E41"/>
<path d="M183.99 464.763V388.113L184.522 388.054C193.622 387.081 202.77 389.404 210.303 394.603C217.836 399.801 223.255 407.529 225.574 416.383L239.226 452.488L183.99 464.763Z" fill="#2F2E41"/>
<path d="M154.637 349.107L112.436 332.727C105.536 330.049 98.5962 327.452 91.732 324.681C88.7917 323.656 86.0832 322.06 83.7626 319.984C81.7423 317.845 80.3653 315.181 79.7895 312.295C78.3258 306.109 78.5905 299.345 78.6949 293.031C78.7758 286.125 79.3442 279.233 80.3957 272.406C82.2386 259.578 86.5666 247.232 93.1369 236.061C104.972 216.643 125.363 202.033 148.818 203.199C159.676 203.739 170.597 207.635 178.665 215.059C179.507 216.065 180.451 216.98 181.483 217.79C182.2 218.059 182.98 218.111 183.726 217.941C184.711 217.877 185.696 217.829 186.682 217.796C190.104 217.651 193.532 217.795 196.93 218.226C203.121 218.894 208.99 221.331 213.834 225.245C217.866 228.713 221.146 233.609 221.484 239.05C221.647 241.548 221.234 244.05 220.277 246.363C219.32 248.676 217.844 250.738 215.964 252.39C210.929 256.633 203.746 255.142 197.706 254.822L175.582 253.65L164.372 253.056C162.064 252.934 162.07 256.523 164.372 256.645L194.166 258.223C198.954 258.477 203.889 259.099 208.681 258.812C212.363 258.645 215.878 257.23 218.65 254.801C221.181 252.476 223.067 249.534 224.123 246.263C225.179 242.992 225.369 239.503 224.675 236.137C223.139 228.794 217.675 222.72 211.269 219.107C202.552 214.19 192.142 213.719 182.388 214.446L183.657 214.972C172.624 203.13 155.725 198.131 139.859 199.88C123.108 201.728 108.209 211.073 97.5044 223.852C85.5693 238.099 79.0654 255.865 76.537 274.133C75.2211 283.996 74.788 293.957 75.2425 303.898C75.2238 308.281 75.9738 312.635 77.4584 316.759C79.1524 320.774 82.2151 324.057 86.1021 326.026C90.5583 328.178 95.1396 330.059 99.8214 331.662L115.369 337.697L145.909 349.551L153.683 352.568C155.838 353.404 156.771 349.935 154.637 349.107Z" fill="#2F2E41"/>
<path d="M88.2833 227.144C84.6159 227.144 81.0307 226.056 77.9813 224.019C74.9319 221.981 72.5552 219.085 71.1518 215.697C69.7483 212.309 69.3811 208.58 70.0965 204.983C70.812 201.386 72.5781 198.082 75.1714 195.489C77.7647 192.895 81.0688 191.129 84.6658 190.414C88.2628 189.698 91.9911 190.066 95.3794 191.469C98.7677 192.873 101.664 195.249 103.701 198.299C105.739 201.348 106.826 204.933 106.826 208.601C106.821 213.517 104.865 218.23 101.389 221.707C97.9128 225.183 93.1996 227.138 88.2833 227.144ZM88.2833 193.647C85.3257 193.647 82.4344 194.524 79.9753 196.167C77.5161 197.81 75.5994 200.146 74.4675 202.878C73.3357 205.611 73.0396 208.617 73.6166 211.518C74.1936 214.419 75.6178 217.084 77.7092 219.175C79.8006 221.266 82.4651 222.69 85.3659 223.268C88.2667 223.845 91.2735 223.548 94.006 222.417C96.7385 221.285 99.074 219.368 100.717 216.909C102.36 214.45 103.237 211.558 103.237 208.601C103.233 204.636 101.656 200.835 98.8525 198.031C96.0491 195.228 92.248 193.651 88.2833 193.647Z" fill="#2F2E41"/>
<path d="M398.257 342.057L358.121 311.36L327.424 351.496L367.56 382.193L398.257 342.057Z" fill="#F0F0F0"/>
<path d="M171.428 68.0321C177.77 68.0271 184.024 69.5072 189.691 72.3537C195.357 75.2002 200.279 79.3341 204.061 84.4244L227.497 53.782L157.178 0L103.396 70.319L133.703 93.4989C136.736 85.9769 141.949 79.5333 148.671 74.9954C155.393 70.4576 163.318 68.0327 171.428 68.0321Z" fill="#F0F0F0"/>
<path d="M845.804 665H1.19633C0.879042 665 0.57475 664.874 0.350395 664.65C0.12604 664.425 0 664.121 0 663.804C0 663.486 0.12604 663.182 0.350395 662.958C0.57475 662.733 0.879042 662.607 1.19633 662.607H845.804C846.121 662.607 846.425 662.733 846.65 662.958C846.874 663.182 847 663.486 847 663.804C847 664.121 846.874 664.425 846.65 664.65C846.425 664.874 846.121 665 845.804 665Z" fill="#3F3D56"/>
<path d="M639.661 466.492H553.691C550.519 466.489 547.478 465.227 545.235 462.984C542.993 460.742 541.731 457.701 541.728 454.529V448.574C541.731 445.403 542.993 442.362 545.235 440.119C547.478 437.876 550.519 436.615 553.691 436.611H639.661C642.833 436.615 645.874 437.876 648.117 440.119C650.36 442.362 651.621 445.403 651.625 448.574V454.529C651.621 457.701 650.36 460.742 648.117 462.984C645.874 465.227 642.833 466.489 639.661 466.492Z" fill="#176B87"/>
<path d="M648.72 455.013H562.749C559.419 455.009 556.226 453.684 553.871 451.33C551.516 448.975 550.191 445.782 550.188 442.451V436.497C550.191 433.166 551.516 429.973 553.871 427.619C556.226 425.264 559.419 423.939 562.749 423.935H648.72C652.05 423.939 655.243 425.264 657.598 427.619C659.953 429.973 661.278 433.166 661.281 436.497V442.451C661.278 445.782 659.953 448.975 657.598 451.33C655.243 453.684 652.05 455.009 648.72 455.013ZM562.749 426.328C560.053 426.331 557.468 427.403 555.562 429.31C553.656 431.216 552.583 433.801 552.58 436.497V442.451C552.583 445.147 553.656 447.732 555.562 449.638C557.468 451.545 560.053 452.617 562.749 452.62H648.72C651.416 452.617 654.001 451.545 655.907 449.638C657.813 447.732 658.886 445.147 658.889 442.451V436.497C658.886 433.801 657.813 431.216 655.907 429.31C654.001 427.403 651.416 426.331 648.72 426.328H562.749Z" fill="#3F3D56"/>
</g>
<defs>
<clipPath id="clip0_4_216">
<rect width="847" height="665" fill="white"/>
</clipPath>
</defs>
</svg>
